<svg width="161" height="44" viewBox="0 0 161 44" fill="#FFFFFF" xmlns="http://www.w3.org/2000/svg">
<g clip-path="url(#clip0_1608_7556)">
<path d="M0.269531 42.7078V0.90625H6.06887V42.7078H0.269531ZM2.16062 42.7078V37.641H25.484V42.7078H2.16062ZM44.5929 43.5311C40.9788 43.5311 38.2473 42.2644 36.3981 39.7311C34.5491 37.1976 33.6246 33.4186 33.6246 28.394V9.96326H39.4239V27.8873C39.4239 31.4341 39.9703 34.0731 41.0629 35.8042C42.1555 37.5354 43.8784 38.401 46.2319 38.401C47.5346 38.401 48.6903 38.0843 49.6988 37.451C50.7494 36.8176 51.6739 35.9098 52.4725 34.7275C53.2709 33.5452 53.9223 32.1518 54.4265 30.5474C54.9309 28.9006 55.2671 27.1273 55.4352 25.2271V9.96326H61.1714V29.0273V42.7078H56.0655L56.5698 32.1941H55.6242C55.078 34.812 54.3006 36.9654 53.2919 38.6544C52.3254 40.301 51.1067 41.5255 49.6358 42.3279C48.1649 43.1301 46.4839 43.5311 44.5929 43.5311ZM74.2776 42.7078V22.4404V9.96326H79.3836L78.8162 20.3502H79.8878C80.4341 17.8591 81.1695 15.7902 82.0941 14.1434C83.0186 12.4545 84.1533 11.2089 85.4981 10.4066C86.8849 9.56213 88.4608 9.13989 90.2257 9.13989C92.3269 9.13989 94.0499 9.66769 95.3947 10.7233C96.7395 11.7367 97.727 13.0667 98.3575 14.7135C99.0298 16.3602 99.366 18.1757 99.366 20.1603H100.375C100.837 17.7958 101.551 15.7902 102.518 14.1434C103.484 12.4967 104.682 11.2511 106.111 10.4066C107.54 9.56213 109.179 9.13989 111.028 9.13989C112.709 9.13989 114.18 9.47768 115.44 10.1533C116.701 10.8288 117.773 11.8422 118.655 13.1934C119.538 14.5023 120.189 16.1279 120.609 18.0703C121.03 20.0125 121.24 22.2504 121.24 24.7838V42.7078H115.503V25.5438C115.503 23.0526 115.272 20.9837 114.81 19.337C114.348 17.648 113.654 16.4024 112.73 15.6002C111.847 14.7556 110.713 14.3334 109.326 14.3334C107.771 14.3334 106.363 14.8823 105.102 15.9801C103.884 17.0358 102.875 18.5347 102.077 20.4769C101.32 22.3771 100.816 24.5516 100.564 27.0006V42.7078H94.9534V26.1139C94.9534 23.496 94.7224 21.3215 94.2601 19.5903C93.7978 17.8591 93.1044 16.5502 92.1799 15.6635C91.2973 14.7767 90.1417 14.3334 88.713 14.3334C87.032 14.3334 85.5821 14.9245 84.3634 16.1068C83.1447 17.2468 82.1572 18.788 81.4007 20.7303C80.6863 22.6727 80.224 24.8472 80.0139 27.2538V42.7078H74.2776ZM141.318 43.5311C139.554 43.5311 137.957 43.1934 136.528 42.5178C135.099 41.8 133.964 40.7655 133.124 39.4144C132.283 38.0209 131.863 36.2687 131.863 34.1574C131.863 32.5952 132.136 31.2229 132.682 30.0407C133.271 28.8584 134.153 27.845 135.331 27.0006C136.549 26.156 138.104 25.4594 139.994 24.9105C141.886 24.3616 144.197 23.8972 146.929 23.5171C148.484 23.306 149.745 23.0948 150.711 22.8837C151.719 22.6727 152.455 22.3348 152.917 21.8703C153.379 21.3637 153.611 20.6247 153.611 19.6536C153.611 18.0492 153.065 16.698 151.972 15.6002C150.879 14.5023 149.156 13.9534 146.803 13.9534C145.584 13.9534 144.344 14.1645 143.083 14.5868C141.823 15.009 140.709 15.7268 139.743 16.7402C138.818 17.7113 138.23 19.0836 137.977 20.857L132.682 19.0836C133.019 17.5635 133.565 16.1912 134.322 14.9667C135.121 13.7422 136.129 12.7078 137.348 11.8633C138.566 10.9766 139.974 10.301 141.571 9.83658C143.209 9.37212 145.016 9.13989 146.992 9.13989C149.724 9.13989 151.993 9.60435 153.799 10.5333C155.649 11.4622 157.014 12.8978 157.898 14.8402C158.821 16.7402 159.284 19.1892 159.284 22.187V29.4707C159.284 30.7795 159.305 32.2152 159.347 33.7775C159.432 35.2976 159.536 36.8387 159.662 38.401C159.788 39.9211 159.915 41.3566 160.041 42.7078H154.746C154.62 41.3566 154.493 40.0054 154.367 38.6544C154.283 37.3032 154.22 35.952 154.178 34.6008H153.359C152.728 36.1631 151.888 37.6199 150.837 38.971C149.787 40.3221 148.463 41.42 146.866 42.2644C145.311 43.109 143.462 43.5311 141.318 43.5311ZM143.021 38.8444C143.945 38.8444 144.869 38.6966 145.794 38.401C146.76 38.1054 147.707 37.6199 148.63 36.9442C149.598 36.2687 150.501 35.403 151.342 34.3476C152.224 33.2919 153.002 32.0251 153.674 30.5474V24.2138L155.313 24.5305C154.64 25.206 153.737 25.7127 152.603 26.0506C151.509 26.3883 150.291 26.6628 148.946 26.8739C147.601 27.085 146.257 27.3173 144.912 27.5705C143.567 27.7817 142.327 28.1195 141.192 28.5839C140.1 29.0062 139.218 29.6185 138.545 30.4207C137.873 31.2229 137.537 32.3207 137.537 33.7141C137.537 35.403 138.041 36.6909 139.049 37.5777C140.058 38.4221 141.382 38.8444 143.021 38.8444Z" fill="#FFFFFF"/>
</g>
<defs>
<clipPath id="clip0_1608_7556">
<rect width="161" height="44" fill="white"/>
</clipPath>
</defs>
</svg>
