<svg width="946" height="202" viewBox="0 0 946 202" fill="#FFFFFF" xmlns="http://www.w3.org/2000/svg">
<path d="M222.804 158.34C212.716 158.34 203.824 156.26 196.128 152.1C188.536 147.94 182.66 142.116 178.5 134.628C174.34 127.036 172.26 118.196 172.26 108.108V46.8H197.22V106.86C197.22 112.58 198.208 117.52 200.184 121.68C202.264 125.736 205.176 128.856 208.92 131.04C212.768 133.224 217.396 134.316 222.804 134.316C228.212 134.316 232.788 133.224 236.532 131.04C240.38 128.856 243.292 125.736 245.268 121.68C247.244 117.52 248.232 112.58 248.232 106.86V46.8H273.192V108.108C273.192 118.196 271.112 127.036 266.952 134.628C262.896 142.116 257.02 147.94 249.324 152.1C241.732 156.26 232.892 158.34 222.804 158.34ZM345.48 156V46.8H387.912C401.64 46.8 412.456 49.608 420.36 55.224C428.264 60.736 432.216 68.328 432.216 78C432.216 85.384 430.032 91.624 425.664 96.72C421.296 101.712 415.108 105.196 407.1 107.172L441.42 156H413.652L380.892 109.044C380.684 109.148 380.424 109.2 380.112 109.2C379.904 109.2 379.696 109.2 379.488 109.2H369.972V156H345.48ZM385.104 106.08C391.864 106.08 397.22 104.364 401.172 100.932C405.228 97.5 407.256 92.976 407.256 87.36C407.256 81.64 405.228 77.064 401.172 73.632C397.22 70.2 391.864 68.484 385.104 68.484H369.972V106.08H385.104ZM551.045 158.34C540.229 158.34 530.453 155.896 521.717 151.008C512.981 146.016 506.117 139.204 501.125 130.572C496.237 121.836 493.793 112.112 493.793 101.4C493.793 90.688 496.237 81.016 501.125 72.384C506.117 63.648 512.981 56.836 521.717 51.948C530.453 46.956 540.229 44.46 551.045 44.46C561.861 44.46 571.637 46.956 580.373 51.948C589.109 56.836 595.921 63.648 600.809 72.384C605.801 81.016 608.297 90.688 608.297 101.4C608.297 112.112 605.801 121.836 600.809 130.572C595.921 139.204 589.109 146.016 580.373 151.008C571.637 155.896 561.861 158.34 551.045 158.34ZM551.045 133.848C557.077 133.848 562.485 132.444 567.269 129.636C572.157 126.828 575.953 122.98 578.657 118.092C581.465 113.1 582.869 107.536 582.869 101.4C582.869 95.264 581.465 89.752 578.657 84.864C575.953 79.872 572.157 75.972 567.269 73.164C562.485 70.252 557.077 68.796 551.045 68.796C545.013 68.796 539.605 70.252 534.821 73.164C530.037 75.972 526.241 79.872 523.433 84.864C520.729 89.752 519.377 95.264 519.377 101.4C519.377 107.536 520.729 113.1 523.433 118.092C526.241 122.98 530.037 126.828 534.821 129.636C539.605 132.444 545.013 133.848 551.045 133.848ZM672.781 156V46.8H715.213C728.941 46.8 739.757 49.608 747.661 55.224C755.565 60.736 759.517 68.328 759.517 78C759.517 85.384 757.333 91.624 752.965 96.72C748.597 101.712 742.409 105.196 734.401 107.172L768.721 156H740.953L708.193 109.044C707.985 109.148 707.725 109.2 707.413 109.2C707.205 109.2 706.997 109.2 706.789 109.2H697.273V156H672.781ZM712.405 106.08C719.165 106.08 724.521 104.364 728.473 100.932C732.529 97.5 734.557 92.976 734.557 87.36C734.557 81.64 732.529 77.064 728.473 73.632C724.521 70.2 719.165 68.484 712.405 68.484H697.273V106.08H712.405ZM816.414 156L857.754 46.8H889.89L931.23 156H904.866L893.166 124.488H854.01L842.154 156H816.414ZM855.102 121.524H892.074L873.666 73.164L855.102 121.524Z" fill="#FFFFFF"/>
<path d="M75.604 46L117.568 155.2L90.58 155.2L59.068 67.84L58.444 67.84L26.776 155.2L0.567994 155.2L42.688 46L75.604 46Z" fill="#FFFFFF"/>
</svg>
