<svg width="323" height="89" viewBox="0 0 323 89" fill="#FFFFFF" xmlns="http://www.w3.org/2000/svg">
<path d="M52.5521 43.9004C52.5521 44.7077 52.474 45.5098 52.3177 46.3014C52.1563 47.0931 51.9271 47.8639 51.6146 48.6087C51.3073 49.3535 50.9271 50.0618 50.4792 50.7337C50.0313 51.4056 49.5208 52.0254 48.9479 52.5983C48.3802 53.1712 47.7552 53.6816 47.0885 54.1296C46.4167 54.5775 45.7083 54.9577 44.9583 55.265C44.2135 55.5723 43.4427 55.8066 42.651 55.9629C41.8594 56.1191 41.0625 56.2025 40.2552 56.2025C39.4479 56.2025 38.6458 56.1191 37.8542 55.9629C37.0625 55.8066 36.2917 55.5723 35.5469 55.265C34.8021 54.9577 34.0938 54.5775 33.4219 54.1296C32.75 53.6816 32.1302 53.1712 31.5573 52.5983C30.9844 52.0254 30.474 51.4056 30.026 50.7337C29.5781 50.0618 29.1979 49.3535 28.8906 48.6087C28.5833 47.8639 28.349 47.0931 28.1927 46.3014C28.0313 45.5098 27.9531 44.7077 27.9531 43.9004C27.9531 43.0931 28.0313 42.2962 28.1927 41.5046C28.349 40.7077 28.5833 39.9421 28.8906 39.1973C29.1979 38.4473 29.5781 37.7389 30.026 37.0671C30.474 36.3952 30.9844 35.7754 31.5573 35.2025C32.1302 34.6348 32.75 34.1243 33.4219 33.6764C34.0938 33.2285 34.8021 32.8483 35.5469 32.541C36.2917 32.2285 37.0625 31.9941 37.8542 31.8379C38.6458 31.6816 39.4479 31.6035 40.2552 31.6035C41.0625 31.6035 41.8594 31.6816 42.651 31.8379C43.4427 31.9941 44.2135 32.2285 44.9583 32.541C45.7083 32.8483 46.4167 33.2285 47.0885 33.6764C47.7552 34.1243 48.3802 34.6348 48.9479 35.2025C49.5208 35.7754 50.0313 36.3952 50.4792 37.0671C50.9271 37.7389 51.3073 38.4473 51.6146 39.1973C51.9271 39.9421 52.1563 40.7077 52.3177 41.5046C52.474 42.2962 52.5521 43.0931 52.5521 43.9004Z" fill="#FFFFFF"/>
<path d="M73.6302 17.1354L69.2083 14.5833V44.9792H69.1875C69.1458 46.0052 69.0521 47.0313 68.9062 48.0469C68.7604 49.0677 68.5573 50.0729 68.3021 51.0677C68.0469 52.0677 67.7396 53.0469 67.3802 54.0104C67.0208 54.974 66.6094 55.9167 66.151 56.8333C65.6875 57.7552 65.1823 58.6458 64.625 59.5156C64.0729 60.3802 63.4688 61.2135 62.8281 62.0156C62.1823 62.8177 61.4948 63.5833 60.7708 64.3125C60.0469 65.0365 59.2813 65.7292 58.4844 66.375C57.6823 67.0208 56.8542 67.625 55.9896 68.1823C55.125 68.7448 54.2344 69.2552 53.3177 69.7188C52.401 70.1823 51.4583 70.5938 50.4948 70.9583C49.5365 71.3229 48.5573 71.6354 47.5625 71.8906C46.5677 72.151 45.5573 72.3594 44.5417 72.5104C43.526 72.6615 42.5 72.7604 41.474 72.8021C40.4479 72.8438 39.4219 72.8333 38.3958 72.7656C37.3646 72.6979 36.349 72.5781 35.3333 72.401C34.3177 72.2292 33.3177 72 32.3281 71.7188C31.3385 71.4375 30.3698 71.099 29.4167 70.7135C28.4635 70.3281 27.5313 69.8958 26.625 69.4115C25.7188 68.9271 24.8385 68.3906 23.9896 67.8125C23.1406 67.2344 22.3229 66.6146 21.5365 65.9479C20.7552 65.2812 20.0052 64.5781 19.2969 63.8333C18.5885 63.0885 17.9219 62.3073 17.2969 61.4896C16.6719 60.6719 16.0885 59.8229 15.5573 58.9479C15.0208 58.0677 14.5312 57.1667 14.0938 56.2344C13.6562 55.3021 13.2656 54.3542 12.9271 53.3802C12.5938 52.4115 12.3073 51.4219 12.0729 50.4219C11.8438 49.4167 11.6667 48.4062 11.5417 47.3854C11.4167 46.3646 11.3438 45.3385 11.3333 44.3125C11.3177 43.2865 11.3542 42.2552 11.4479 41.2344C11.5417 40.2083 11.6927 39.1927 11.8958 38.1823C12.099 37.1771 12.3542 36.1823 12.6615 35.1979C12.9688 34.2188 13.3333 33.2552 13.7396 32.3125C14.151 31.3698 14.6146 30.4531 15.125 29.5625C15.6302 28.6667 16.1875 27.8021 16.7865 26.9688C17.3906 26.1354 18.0365 25.3333 18.7188 24.5677C19.4062 23.8021 20.1302 23.0729 20.8958 22.3854C21.6615 21.6979 22.4583 21.0521 23.2917 20.4479C24.125 19.8438 24.9896 19.2865 25.8802 18.776C26.7708 18.2656 27.6927 17.8021 28.6302 17.3906C29.5729 16.974 30.5365 16.6146 31.5156 16.3021C32.4948 15.9896 33.4896 15.7344 34.5 15.526C35.5052 15.3229 36.5208 15.1719 37.5469 15.0781C38.5677 14.9792 39.5938 14.9375 40.625 14.9479C41.651 14.9635 42.6771 15.0312 43.6979 15.151C44.7188 15.2708 45.7344 15.4479 46.7344 15.6771C47.7344 15.9115 48.724 16.1927 49.6979 16.526C50.6667 16.8594 51.6198 17.25 52.5521 17.6823V4.96875L47.1302 1.84375C46.0885 1.23958 44.9792 0.78125 43.8125 0.46875C42.6458 0.15625 41.4583 0 40.2552 0C39.0469 0 37.8594 0.15625 36.6927 0.46875C35.526 0.78125 34.4219 1.23958 33.375 1.84375L6.88021 17.1354C5.83333 17.7396 4.88542 18.4688 4.03125 19.3229C3.17708 20.1771 2.44792 21.1302 1.84375 22.1719C1.23958 23.2188 0.78125 24.3229 0.46875 25.4896C0.15625 26.6562 0 27.8438 0 29.0521V59.6458C0 60.8542 0.15625 62.0417 0.46875 63.2083C0.78125 64.3698 1.23958 65.4792 1.84375 66.526C2.44792 67.5677 3.17708 68.5208 4.03125 69.375C4.88542 70.2292 5.83333 70.9583 6.88021 71.5625L33.375 86.8542C34.4219 87.4583 35.526 87.9167 36.6927 88.2292C37.8594 88.5417 39.0469 88.6979 40.2552 88.6979C41.4583 88.6979 42.6458 88.5417 43.8125 88.2292C44.9792 87.9167 46.0885 87.4583 47.1302 86.8542L73.6302 71.5573C74.6719 70.9531 75.625 70.224 76.4792 69.3698C77.3333 68.5156 78.0625 67.5677 78.6615 66.5208C79.2656 65.474 79.724 64.3698 80.0365 63.2031C80.349 62.0365 80.5052 60.849 80.5052 59.6406V29.0521C80.5052 27.8438 80.349 26.6562 80.0365 25.4896C79.724 24.3229 79.2656 23.2188 78.6615 22.1719C78.0625 21.1302 77.3333 20.1771 76.4792 19.3229C75.625 18.4688 74.6719 17.7396 73.6302 17.1354Z" fill="#FFFFFF"/>
<path d="M130.312 44.5202C130.312 48.9525 129.484 52.64 127.833 55.5827C126.177 58.515 123.854 60.7181 120.854 62.1869C117.865 63.6452 114.354 64.3744 110.312 64.3744H98V26.291H111.167C115.26 26.291 118.734 26.9993 121.583 28.416C124.427 29.8223 126.594 31.8743 128.083 34.5827C129.568 37.291 130.312 40.6035 130.312 44.5202ZM119.625 44.8952C119.625 42.5931 119.318 40.6816 118.708 39.166C118.094 37.64 117.172 36.4993 115.938 35.7493C114.698 34.9889 113.146 34.6035 111.271 34.6035H108.271V55.9368H110.562C113.688 55.9368 115.979 55.0358 117.438 53.2285C118.896 51.4108 119.625 48.6348 119.625 44.8952Z" fill="#FFFFFF"/>
<path d="M167.098 49.5618C167.098 52.0202 166.754 54.2077 166.077 56.1243C165.41 58.0306 164.431 59.6348 163.139 60.9368C161.858 62.2441 160.306 63.2285 158.473 63.8952C156.65 64.5618 154.598 64.8952 152.306 64.8952C150.181 64.8952 148.223 64.5618 146.431 63.8952C144.65 63.2285 143.103 62.2441 141.785 60.9368C140.462 59.6348 139.441 58.0306 138.723 56.1243C138.014 54.2077 137.66 52.0202 137.66 49.5618C137.66 46.3014 138.249 43.541 139.431 41.291C140.624 39.0306 142.327 37.3066 144.535 36.1243C146.754 34.9473 149.4 34.3535 152.473 34.3535C155.306 34.3535 157.816 34.9473 160.014 36.1243C162.223 37.3066 163.952 39.0306 165.202 41.291C166.462 43.541 167.098 46.3014 167.098 49.5618ZM147.993 49.5618C147.993 51.2441 148.139 52.6608 148.431 53.8118C148.723 54.9681 149.191 55.8431 149.848 56.4368C150.499 57.0358 151.353 57.3327 152.41 57.3327C153.478 57.3327 154.327 57.0358 154.952 56.4368C155.577 55.8431 156.025 54.9681 156.306 53.8118C156.598 52.6608 156.743 51.2441 156.743 49.5618C156.743 47.8691 156.598 46.4577 156.306 45.3327C156.025 44.2077 155.566 43.3639 154.931 42.791C154.29 42.2077 153.436 41.916 152.368 41.916C150.827 41.916 149.707 42.5618 149.014 43.8535C148.332 45.1348 147.993 47.0358 147.993 49.5618Z" fill="#FFFFFF"/>
<path d="M183.043 64.375L171.793 34.875H182.418L187.418 52.3125C187.47 52.4688 187.564 52.8698 187.689 53.5208C187.824 54.1615 187.897 54.7604 187.897 55.3125H188.064C188.064 54.7188 188.126 54.1563 188.251 53.625C188.376 53.0833 188.47 52.6667 188.543 52.375L193.772 34.875H204.376L193.126 64.375H183.043Z" fill="#FFFFFF"/>
<path d="M220.516 34.875V64.375H210.328V34.875H220.516ZM215.474 23C216.932 23 218.203 23.3073 219.286 23.9167C220.37 24.5156 220.911 25.7187 220.911 27.5208C220.911 29.2708 220.37 30.4583 219.286 31.0833C218.203 31.6979 216.932 32 215.474 32C213.974 32 212.693 31.6979 211.641 31.0833C210.599 30.4583 210.078 29.2708 210.078 27.5208C210.078 25.7187 210.599 24.5156 211.641 23.9167C212.693 23.3073 213.974 23 215.474 23Z" fill="#FFFFFF"/>
<path d="M243.299 34.3535C246.174 34.3535 248.654 34.8535 250.737 35.8535C252.82 36.8431 254.424 38.3327 255.549 40.3327C256.674 42.3327 257.237 44.8327 257.237 47.8327V52.3743H239.029C239.122 53.916 239.701 55.1816 240.758 56.166C241.826 57.1556 243.404 57.6452 245.487 57.6452C247.331 57.6452 249.018 57.4681 250.549 57.1035C252.091 56.7441 253.68 56.1816 255.32 55.416V62.7285C253.888 63.4785 252.331 64.0306 250.654 64.3743C248.971 64.7181 246.846 64.8952 244.279 64.8952C241.305 64.8952 238.643 64.3691 236.299 63.3118C233.951 62.2441 232.102 60.5983 230.758 58.3743C229.424 56.1556 228.758 53.3014 228.758 49.8118C228.758 46.2702 229.362 43.3639 230.57 41.0827C231.789 38.791 233.492 37.0983 235.674 35.9993C237.867 34.9056 240.409 34.3535 243.299 34.3535ZM243.674 41.2702C242.477 41.2702 241.471 41.6556 240.654 42.416C239.846 43.166 239.372 44.3483 239.237 45.9577H247.987C247.971 45.0983 247.799 44.3118 247.466 43.6035C247.143 42.8848 246.664 42.3118 246.029 41.8952C245.388 41.4785 244.602 41.2702 243.674 41.2702Z" fill="#FFFFFF"/>
<path d="M283.853 34.3535C286.895 34.3535 289.374 35.2181 291.29 36.9368C293.217 38.6452 294.186 41.3952 294.186 45.1868V64.3743H284.02V48.2702C284.02 46.3118 283.733 44.8327 283.165 43.8327C282.592 42.8327 281.686 42.3327 280.436 42.3327C278.52 42.3327 277.228 43.1243 276.561 44.7077C275.905 46.2806 275.582 48.5306 275.582 51.4577V64.3743H265.395V34.8743H273.082L274.457 38.7702H274.853C275.478 37.8431 276.217 37.0514 277.082 36.3952C277.957 35.7285 278.957 35.2233 280.082 34.8743C281.207 34.5306 282.462 34.3535 283.853 34.3535Z" fill="#FFFFFF"/>
<path d="M317.979 56.8548C318.896 56.8548 319.734 56.7611 320.5 56.5632C321.26 56.3704 322.062 56.1257 322.896 55.834V63.2507C321.781 63.7402 320.604 64.1361 319.354 64.4382C318.115 64.7402 316.531 64.8965 314.604 64.8965C312.698 64.8965 311.021 64.5944 309.562 64.0007C308.104 63.4069 306.969 62.3652 306.167 60.8757C305.359 59.3913 304.958 57.3236 304.958 54.6673V42.5007H301.375V38.3548L305.917 35.1465L308.542 28.959H315.208V34.8757H322.458V42.5007H315.208V53.9798C315.208 54.9382 315.448 55.6621 315.938 56.1465C316.422 56.6204 317.104 56.8548 317.979 56.8548Z" fill="#FFFFFF"/>
</svg>
