<svg viewBox="0 0 96 96" xmlns="http://www.w3.org/2000/svg" xmlns:xlink="http://www.w3.org/1999/xlink" id="Icons_LeftBrain" overflow="hidden"><path d="M81 55.618C81.002 52.7465 79.8381 49.9973 77.775 48 80.6662 43.1961 79.1157 36.9581 74.3118 34.0668 74.0681 33.9201 73.8182 33.7837 73.563 33.658 74.8883 29.2121 72.3586 24.5337 67.9127 23.2084 67.8371 23.1859 67.7612 23.1644 67.685 23.144 67.3649 18.2657 63.1507 14.5705 58.2724 14.8906 53.615 15.1962 49.995 19.0656 50 23.733L50 72.89C50.0011 76.5594 52.9765 79.5331 56.6459 79.5321 59.548 79.5312 62.1138 77.6469 62.983 74.878 68.233 76.0295 73.4225 72.707 74.574 67.457 74.725 66.7686 74.8008 66.0658 74.8 65.361 74.8 65.332 74.8 65.303 74.8 65.273 78.5769 63.544 80.9992 59.7718 81 55.618Z" fill="#60A5FF"/><path d="M19.711 21.243C19.1804 21.2438 18.6715 21.0328 18.297 20.657L14.055 16.414C13.2605 15.6466 13.2385 14.3805 14.0058 13.586 14.7732 12.7915 16.0393 12.7695 16.8338 13.5368 16.8505 13.5529 16.8669 13.5693 16.883 13.586L21.125 17.829C21.9059 18.6102 21.9057 19.8765 21.1246 20.6574 20.7496 21.0323 20.2412 21.2429 19.711 21.243Z" fill="#60A5FF"/><path d="M12.809 34.667C12.5414 34.6672 12.2764 34.6135 12.03 34.509L5.759 31.857C4.7447 31.4197 4.27697 30.2429 4.7143 29.2286 5.14732 28.2243 6.30675 27.754 7.317 28.173L13.589 30.825C14.6063 31.2553 15.0822 32.4288 14.6519 33.4461 14.3387 34.1864 13.6128 34.6674 12.809 34.667Z" fill="#60A5FF"/><path d="M9.538 49.533 4 49.533C2.89543 49.533 2 48.6376 2 47.533 2 46.4284 2.89543 45.533 4 45.533L9.538 45.533C10.6426 45.533 11.538 46.4284 11.538 47.533 11.538 48.6376 10.6426 49.533 9.538 49.533Z" fill="#60A5FF"/><path d="M5.006 67.687C3.90143 67.6885 3.00475 66.7944 3.00321 65.6898 3.00212 64.9051 3.45996 64.1923 4.174 63.867L9.482 61.443C10.4866 60.9838 11.6733 61.4259 12.1325 62.4305 12.5917 63.4351 12.1496 64.6218 11.145 65.081L5.836 67.506C5.57549 67.6251 5.29244 67.6868 5.006 67.687Z" fill="#60A5FF"/><path d="M14.847 82.685C13.7424 82.6853 12.8467 81.7901 12.8464 80.6856 12.8463 80.1546 13.0573 79.6453 13.433 79.27L17.676 75.028C18.486 74.277 19.7514 74.3249 20.5024 75.1349 21.2145 75.9029 21.2134 77.0902 20.5 77.857L16.261 82.1C15.8862 82.4753 15.3774 82.6858 14.847 82.685Z" fill="#60A5FF"/><path d="M33.087 37.391C31.715 37.8034 30.9371 39.2499 31.3494 40.6219 31.7618 41.9939 33.2083 42.7718 34.5803 42.3594 35.9521 41.9471 36.7301 40.5009 36.318 39.129 35.9066 37.7573 34.461 36.9789 33.0893 37.3903 33.0886 37.3905 33.0878 37.3908 33.087 37.391Z" fill="#60A5FF"/><path d="M29.239 52.334C27.867 52.7464 27.0891 54.1929 27.5014 55.5649 27.9138 56.9369 29.3603 57.7148 30.7323 57.3024 32.1041 56.8901 32.8821 55.4439 32.47 54.072 32.0586 52.7003 30.613 51.9219 29.2413 52.3333 29.2406 52.3335 29.2398 52.3338 29.239 52.334Z" fill="#60A5FF"/><path d="M37.143 14.875C32.4827 14.877 28.6225 18.4928 28.316 23.143 23.8344 24.3419 21.1732 28.9468 22.3721 33.4284 22.3926 33.5052 22.4143 33.5818 22.437 33.658 17.408 36.1345 15.3388 42.2189 17.8153 47.2479 17.9416 47.5043 18.0786 47.7552 18.226 48 14.0179 52.0794 13.9135 58.7977 17.9928 63.0058 18.913 63.955 20.0024 64.724 21.205 65.273 21.205 65.303 21.205 65.332 21.205 65.361 21.1995 70.7364 25.5527 75.0984 30.928 75.1039 31.6325 75.1047 32.3349 75.0289 33.023 74.878 34.1289 78.3762 37.8613 80.3155 41.3594 79.2096 44.117 78.3378 45.9937 75.7821 46 72.89L46 23.733C46.0006 18.8414 42.0356 14.8756 37.144 14.875 37.1437 14.875 37.1433 14.875 37.143 14.875ZM36.87 57.545 36.05 59.073 34.35 59.022C34.0082 59.3713 33.625 59.6776 33.209 59.934L32.924 61.612 31.272 62.112 30.106 60.881C29.6192 60.8914 29.133 60.8427 28.658 60.736L27.258 61.708 25.741 60.892 25.78 59.192C25.4314 58.851 25.1255 58.4688 24.869 58.054L23.19 57.762 22.69 56.11 23.935 54.955C23.9198 54.4661 23.9641 53.9772 24.067 53.499L23.092 52.1 23.912 50.575 25.62 50.624C25.9577 50.273 26.3368 49.9644 26.749 49.705L27.034 48.027 28.686 47.527 29.854 48.768C30.3443 48.7556 30.8343 48.8033 31.313 48.91L32.704 47.93 34.229 48.751 34.178 50.451C34.5311 50.7912 34.8408 51.1738 35.1 51.59L36.778 51.874 37.278 53.526 36.033 54.7C36.0439 55.1868 35.9952 55.673 35.888 56.148ZM40.7 42.6 39.88 44.125 38.18 44.074C37.8424 44.4275 37.463 44.7385 37.05 45L36.758 46.68 35.106 47.18 33.938 45.939C33.4509 45.9499 32.9643 45.9012 32.489 45.794L31.098 46.774 29.573 45.953 29.636 44.234C29.2848 43.8965 28.9762 43.5173 28.717 43.105L27.04 42.821 26.54 41.169 27.781 40C27.7701 39.5134 27.8178 39.0272 27.923 38.552L26.928 37.158 27.761 35.626 29.461 35.677C29.8018 35.3281 30.1839 35.0221 30.599 34.766L30.891 33.086 32.543 32.586 33.709 33.817C34.1958 33.8067 34.682 33.8554 35.157 33.962L36.549 32.986 38.074 33.806 38.022 35.515C38.3732 35.8525 38.6818 36.2316 38.941 36.644L40.619 36.928 41.119 38.581 39.878 39.749C39.886 40.2426 39.833 40.7354 39.72 41.216Z" fill="#60A5FF"/></svg>