<svg viewBox="0 0 107.73 82.41" xmlns="http://www.w3.org/2000/svg" xmlns:xlink="http://www.w3.org/1999/xlink" id="Layer_1" overflow="hidden"><path d="M102.19 82.41 64.71 82.32C63.43 82.32 60.95 80.66 60.34 79.68 59.73 78.7 59.72 75.9 60.34 74.93L78.33 46.56C79.21 45.17 80.56 43.64 81.55 42.98 82.71 42.22 86.49 43.21 87.29 44.42L107.25 74.74C108.03 75.93 107.7 79.01 107.25 79.94 106.71 81.06 104.34 82.42 102.18 82.41ZM86.12 66.3 86.46 55.29C86.49 54.45 84.03 53.41 83.2 53.54 82.58 53.64 81.13 54.71 81.15 55.33L81.55 65.99C81.58 66.71 82.68 68.05 83.19 68.45 83.7 68.85 86.1 67.03 86.12 66.31Z" fill="#2DD4BF"/><path d="M69.6 27.47 75.04 22.32C66.13 9.99 50.83 4.69 35.94 9.35 22.41 13.58 11.83 26.01 11.53 41.72 8.83 41.66 6.28 41.42 3.93 40.91 4.44 22.28 16.7 7.69 32.99 2.21 50.96-3.83 69.5 2.89 81.22 17.35L86.37 13.97C87.4 21.32 87.77 27.19 87.85 35L69.6 27.47Z" fill="#2DD4BF"/><path d="M52.12 74.23 51.56 81.73C36.52 83.38 23.29 77.51 13.25 66.43L7.75 70.75 0 46.4C9.43 48.62 15.62 50.66 24.48 53.88L18.9 60.64C26.81 71.09 38.12 75.75 52.12 74.24Z" fill="#2DD4BF"/><path d="M50.66 46.31C50.59 47.49 48.21 49.03 47.23 49.07 46.05 49.11 43.2 47.74 43.14 46.38L42.31 24.88C42.2 21.93 44.77 19.78 47.19 19.74 49.61 19.7 52.14 21.97 51.96 24.83L50.65 46.31Z" fill="#2DD4BF"/><path d="M46.13 52.18C48.37 51.66 51.29 53.81 51.6 55.61 52.08 58.47 50.76 61.4 48.13 61.93 45.65 62.43 42.66 60.8 42 58.29 41.34 55.78 43.12 52.87 46.13 52.18Z" fill="#2DD4BF"/></svg>