<svg viewBox="0 0 164.37 193.28" xmlns="http://www.w3.org/2000/svg" xmlns:xlink="http://www.w3.org/1999/xlink" id="Layer_1" overflow="hidden"><path d="M20.9 138.92 35.44 137.01C36.8 136.83 37.91 134.95 37.73 133.57L35.8 119.02C35.56 117.2 36.9 115.86 38.62 115.62L53.16 113.64C54.99 113.39 55.74 111.62 55.53 110.02L53.25 92.79 62.8 80.18C64.01 78.58 64.15 76.51 63.37 74.79 56.71 60.14 57.21 43.37 63.82 29.88 71.58 14.07 85.82 3.66 102.5 0.78 126.68-3.39 150.49 9.54 160.04 31.97 167.61 49.75 165.13 70.07 153.46 85.24 141.79 100.41 122.64 108.11 103.37 105.16 100.92 104.78 99.15 105.38 97.54 107.48L34.78 189.49 6.62 193.27C5.23 193.46 3.6 192.19 3.42 190.83L0.01 165.06C-0.17 163.72 1.73 162.38 2.87 162.23L17.4 160.3C18.9 160.1 20.05 158.59 19.85 157.07L17.93 142.54C17.66 140.5 19.08 139.14 20.9 138.9ZM138.48 44.4C143.16 36.04 139.71 26.1 131.82 21.9 123.91 17.69 114.18 20.62 109.82 28.37 105.38 36.27 108.21 46.4 116.2 50.79 123.92 55.03 133.87 52.6 138.47 44.4Z" fill="#5899E4"/></svg>