<svg width="512" height="512" viewBox="0 0 48 48" xmlns="http://www.w3.org/2000/svg" xmlns:xlink="http://www.w3.org/1999/xlink" stroke-linejoin="round" stroke-miterlimit="2" fill-rule="evenodd" clip-rule="evenodd" overflow="hidden"><path d="M21.099 6.233C13.487 7.469 7.47 13.486 6.233 21.099 4.948 21.438 4 22.609 4 24 4 25.391 4.948 26.562 6.233 26.901 7.469 34.513 13.486 40.53 21.099 41.767 21.438 43.052 22.609 44 24 44 25.391 44 26.562 43.052 26.901 41.767 34.513 40.531 40.53 34.514 41.767 26.901 43.052 26.562 44 25.391 44 24 44 22.609 43.052 21.438 41.767 21.099 40.531 13.487 34.514 7.47 26.901 6.233 26.562 4.948 25.391 4 24 4 22.609 4 21.438 4.948 21.099 6.233ZM24 42C23.448 42 23 41.552 23 41 23 40.448 23.448 40 24 40 24.552 40 25 40.448 25 41 25 41.552 24.552 42 24 42ZM12.041 25 9.829 25C9.556 25.773 8.975 26.4 8.233 26.735 9.379 33.376 14.624 38.621 21.265 39.767 21.6 39.026 22.227 38.444 23 38.171L23 35.959C17.175 35.478 12.523 30.827 12.041 25ZM35.959 25C35.478 30.825 30.827 35.477 25 35.959L25 38.171C25.773 38.444 26.4 39.025 26.735 39.767 33.376 38.621 38.621 33.376 39.767 26.735 39.026 26.4 38.444 25.773 38.171 25ZM25.938 33.812 25.653 32.917C25.653 32.917 23.313 31.357 23.313 31.357 23.313 31.357 20.219 32.13 20.219 32.13L19.805 33.079C21.081 33.67 22.502 34 24 34 24.663 34 25.311 33.935 25.938 33.812ZM29.904 15.93C28.249 14.717 26.208 14 24 14 21.678 14 19.54 14.793 17.842 16.123L18.8 17.4C18.93 17.573 19 17.784 19 18L19 20.877 19.97 24.757C20.028 24.989 20.001 25.234 19.894 25.447L17.894 29.447C17.785 29.666 17.599 29.838 17.371 29.928L16.287 30.362C16.81 30.995 17.409 31.563 18.071 32.052L18.584 30.879C18.708 30.595 18.957 30.384 19.257 30.309L23.257 29.309C23.531 29.241 23.82 29.291 24.055 29.447L27.055 31.447C27.244 31.573 27.384 31.76 27.453 31.977L27.851 33.23C28.502 32.958 29.118 32.619 29.69 32.223L28.234 29.676 24.4 26.8C24.253 26.69 24.14 26.542 24.072 26.371L22.072 21.371C21.949 21.066 21.985 20.719 22.168 20.445L24.168 17.445C24.353 17.167 24.666 17 25 17L27.764 17ZM31.488 17.374 28.447 18.894C28.308 18.964 28.155 19 28 19L25.535 19C25.535 19 24.124 21.117 24.124 21.117 24.124 21.117 25.824 25.368 25.824 25.368L29.6 28.2C29.709 28.282 29.801 28.385 29.868 28.504L31.237 30.899C32.949 29.103 34 26.673 34 24 34 21.46 33.051 19.139 31.488 17.374ZM16.388 17.517C14.899 19.263 14 21.527 14 24 14 25.683 14.417 27.27 15.152 28.662L16.276 28.213C16.276 28.213 17.94 24.884 17.94 24.884L17.03 21.243C17.01 21.163 17 21.082 17 21L17 18.333ZM42 24C42 24.552 41.552 25 41 25 40.448 25 40 24.552 40 24 40 23.448 40.448 23 41 23 41.552 23 42 23.448 42 24ZM6 24C6 23.448 6.448 23 7 23 7.552 23 8 23.448 8 24 8 24.552 7.552 25 7 25 6.448 25 6 24.552 6 24ZM26.735 8.233C26.4 8.974 25.773 9.556 25 9.829L25 12.041C30.825 12.522 35.477 17.173 35.959 23L38.171 23C38.444 22.227 39.025 21.6 39.767 21.265 38.621 14.624 33.376 9.379 26.735 8.233ZM21.265 8.233C14.624 9.379 9.379 14.624 8.233 21.265 8.974 21.6 9.556 22.227 9.829 23L12.041 23C12.522 17.175 17.173 12.523 23 12.041L23 9.829C22.227 9.556 21.6 8.975 21.265 8.233ZM24 6C24.552 6 25 6.448 25 7 25 7.552 24.552 8 24 8 23.448 8 23 7.552 23 7 23 6.448 23.448 6 24 6Z" fill="#60A5FF"/></svg>