<svg viewBox="0 0 311.59 283.22" xmlns="http://www.w3.org/2000/svg" xmlns:xlink="http://www.w3.org/1999/xlink" id="Layer_1" overflow="hidden"><path d="M31.05 204.5C26.65 208.91 20.97 208.92 17.01 204.91L2.03 189.75C-0.99 186.7-0.51 180.8 2.62 177.67L123.3 56.74C126.93 53.1 132.56 54.08 135.7 57.22L175.17 96.68C178.53 100.03 184.23 100.28 187.7 96.81L250.77 33.63 238.54 21.2C236.3 18.92 235.25 14.68 236.37 11.48 237.16 9.23 240.27 5.97 243.46 5.66L302.46 0.02C304.66-0.19 308.27 1.7 309.51 3.1 311.17 4.99 311.81 8.63 311.52 11.61L306.21 67.35C305.8 71.7 302.42 75.31 298.86 75.88 294.39 76.6 291.11 74.52 287.89 70.63 285.29 67.49 278.15 61.81 273.69 66.27L188.4 151.49C184.38 155.5 178.96 155.88 174.97 151.89L135.57 112.48C131.88 108.79 126.14 109.22 122.48 112.88L31.05 204.5Z" fill="#D4A373"/><path d="M249.77 283.12C243.85 283.1 240.37 278.83 240.37 273.47L240.37 130.66C240.37 128.09 241.55 125 243.06 123.48L263.15 103.29C266 100.42 270.28 99.1 274.28 100.97 277.5 102.48 279.42 106.19 279.42 110.65L279.4 273.46C279.4 279.37 275.03 283.21 269.4 283.19L249.77 283.12Z" fill="#D4A373"/><path d="M171.83 273.06C171.83 278.5 168.62 283.03 163.31 283.03L141.38 283.03C136.2 283.01 132.8 278.46 132.8 273.54L132.82 157.6C132.82 154.15 136.11 150.95 138.37 150.07 141.88 148.7 145.95 149.59 148.56 152.2L169.24 172.86C170.57 174.19 171.82 177.36 171.82 179.58L171.82 273.06Z" fill="#D4A373"/><path d="M196.23 283.17C191.46 283.18 186.51 279.62 186.5 274.3L186.44 184.65C186.44 182.3 187.75 179.1 189.22 177.61L209.77 156.84C212.02 154.57 216.37 153.55 219.44 154.44 221.75 155.11 225.53 158.07 225.52 161.56L225.49 275.53C225.49 280.04 220.25 283.1 216.51 283.11L196.22 283.16Z" fill="#D4A373"/><path d="M88.79 283.18C82.92 283.21 78.95 278.88 78.95 273.54L78.93 187.56C78.93 185.51 80.22 182.04 81.45 180.81L102.55 159.65C105 157.19 108.95 156.43 112.36 157.68 115.15 158.7 118.06 162.03 118.06 166.01L118.08 273.47C118.08 278.47 114.7 283.04 109.35 283.07L88.78 283.18Z" fill="#D4A373"/><path d="M35.82 283.22C29.07 283.24 25.18 278.74 25.18 272.6L25.2 241.46C25.2 238.42 26.93 235.32 28.98 233.28L49.17 213.22C51.48 210.92 56.06 210.39 58.61 211.5 61.55 212.78 64.37 216.03 64.37 219.63L64.37 273.59C64.37 279.35 59.9 283.17 54.41 283.18L35.8 283.22Z" fill="#D4A373"/></svg>