<svg viewBox="0 0 265.03 299.21" xmlns="http://www.w3.org/2000/svg" xmlns:xlink="http://www.w3.org/1999/xlink" id="Layer_1" overflow="hidden"><path d="M214.42 243.07C193.57 265.98 169.48 283.8 142.09 297.18 136.63 299.85 130.69 299.88 125.15 297.29 97.79 284.46 73.54 266.69 52.96 244.45 21.88 210.85 5.08 168.15 1.62 122.62-0.04 100.94 0.19 80.04 0 58.26-0.08 49.48 3.38 42.75 12.3 39.98 49.52 28.42 86.17 16.13 122.62 1.97 131.06-1.31 138.88-0.19 147.14 3.1 182.33 17.11 217.36 29.51 253.71 40.32 259.77 42.12 265 46.71 265 53.52L265.02 110.21C265.02 117.19 264.21 123.77 263.56 130.65 259.65 172.65 243.13 211.49 214.4 243.07ZM76.86 150.44 115.66 186.9C120.54 191.48 130.96 192.28 135.67 186.72L192.46 119.78C196.49 115.03 201.11 110.76 204.1 105.56 207.8 99.13 202.8 91.69 197.31 89.05 190.94 85.98 184.98 87.78 180.19 93.21L124.44 156.27 95.26 130.14C91.18 126.49 84.54 127.71 80.03 130.36 76.45 132.46 73.09 136.83 73.25 142.39 73.31 144.59 75.16 148.84 76.87 150.44Z" fill="#3A6F81"/></svg>