<svg viewBox="0 0 96 96" xmlns="http://www.w3.org/2000/svg" xmlns:xlink="http://www.w3.org/1999/xlink" id="Icons_RobotHand" overflow="hidden"><path d="M91.288 37.022C91.2262 36.1252 90.5737 35.3799 89.693 35.2L79.119 33.041C78.4614 32.9048 77.7795 33.1098 77.306 33.586L75.17 35.721 60.97 21.521C60.7986 24.4306 59.228 27.0768 56.756 28.621L69.513 41.378 67.45 43.442C66.9814 43.9107 66.7754 44.5811 66.9 45.232L68.945 55.916C69.1162 56.8092 69.8686 57.4744 70.776 57.535L81.382 58.242C81.427 58.242 81.472 58.247 81.517 58.247 82.6216 58.2832 83.5463 57.4171 83.5825 56.3125 83.6187 55.2079 82.7526 54.2832 81.648 54.247L72.582 53.647 71.027 45.522 79.374 37.175 87.4 38.81 88.006 47.894C88.0795 48.9969 89.0331 49.8315 90.136 49.758 91.2389 49.6845 92.0734 48.7309 92 47.628Z" fill="#2DE6BF"/><path d="M42.941 50.941C42.9418 47.7265 42.0226 44.5789 40.292 41.87L33.236 50.3C29.5849 54.6766 23.0771 55.2647 18.7005 51.6135 14.324 47.9624 13.7359 41.4546 17.387 37.0781 17.7843 36.6018 18.2238 36.1623 18.7 35.765L18.96 35.547C12.9313 38.2982 9.0624 44.3142 9.06 50.941L9.06 70 42.941 70Z" fill="#2DE6BF"/><path d="M43 21C43 20.3913 43.0616 19.7842 43.184 19.188L20.623 38.065C17.5242 40.6614 17.117 45.2782 19.7134 48.377 22.3097 51.4758 26.9266 51.883 30.0254 49.2866 30.3547 49.0107 30.6591 48.7063 30.935 48.377L47.388 28.714C44.6711 27.0927 43.0051 24.1639 43 21ZM27.923 43.906C27.1421 44.6872 25.8757 44.6874 25.0946 43.9064 24.3134 43.1255 24.3132 41.8592 25.0941 41.078 25.8751 40.2968 27.1414 40.2966 27.9226 41.0776 27.9227 41.0777 27.9229 41.0779 27.923 41.078 28.7038 41.859 28.7038 43.125 27.923 43.906Z" fill="#2DE6BF"/><path d="M43 74 9 74C6.79086 74 5 75.7909 5 78L5 82 47 82 47 78C47 75.7909 45.2091 74 43 74Z" fill="#2DE6BF"/><path d="M52 15C48.6863 15 46 17.6863 46 21 46 24.3137 48.6863 27 52 27 55.3137 27 58 24.3137 58 21 58 17.6863 55.3137 15 52 15ZM52 22.5C51.1716 22.5 50.5 21.8284 50.5 21 50.5 20.1716 51.1716 19.5 52 19.5 52.8284 19.5 53.5 20.1716 53.5 21 53.5 21.8284 52.8284 22.5 52 22.5Z" fill="#2DE6BF"/></svg>