<svg xmlns="http://www.w3.org/2000/svg" viewBox="0 0 82 90" fill="#FFFFFF" aria-hidden="true">
  <!-- Left mark (gear + arm) extracted from dovient_Logo.svg -->
  <path d="M52.5521 43.9004C52.5521 44.7077 52.474 45.5098 52.3177 46.3014C52.1563 47.0931 51.9271 47.8639 51.6146 48.6087C51.3073 49.3535 50.9271 50.0618 50.4792 50.7337C50.0313 51.4056 49.5208 52.0254 48.9479 52.5983C48.3802 53.1712 47.7552 53.6816 47.0885 54.1296C46.4167 54.5775 45.7083 54.9577 44.9583 55.265C44.2135 55.5723 43.4427 55.8066 42.651 55.9629C41.8594 56.1191 41.0625 56.2025 40.2552 56.2025C39.4479 56.2025 38.6458 56.1191 37.8542 55.9629C37.0625 55.8066 36.2917 55.5723 35.5469 55.265C34.8021 54.9577 34.0938 54.5775 33.4219 54.1296C32.75 53.6816 32.1302 53.1712 31.5573 52.5983C30.9844 52.0254 30.474 51.4056 30.026 50.7337C29.5781 50.0618 29.1979 49.3535 28.8906 48.6087C28.5833 47.8639 28.349 47.0931 28.1927 46.3014C28.0313 45.5098 27.9531 44.7077 27.9531 43.9004C27.9531 43.0931 28.0313 42.2962 28.1927 41.5046C28.349 40.7077 28.5833 39.9421 28.8906 39.1973C29.1979 38.4473 29.5781 37.7389 30.026 37.0671C30.474 36.3952 30.9844 35.7754 31.5573 35.2025C32.1302 34.6348 32.75 34.1243 33.4219 33.6764C34.0938 33.2285 34.8021 32.8483 35.5469 32.541C36.2917 32.2285 37.0625 31.9941 37.8542 31.8379C38.6458 31.6816 39.4479 31.6035 40.2552 31.6035C41.0625 31.6035 41.8594 31.6816 42.651 31.8379C43.4427 31.9941 44.2135 32.2285 44.9583 32.541C45.7083 32.8483 46.4167 33.2285 47.0885 33.6764C47.7552 34.1243 48.3802 34.6348 48.9479 35.2025C49.5208 35.7754 50.0313 36.3952 50.4792 37.0671C50.9271 37.7389 51.3073 38.4473 51.6146 39.1973C51.9271 39.9421 52.1563 40.7077 52.3177 41.5046C52.474 42.2962 52.5521 43.0931 52.5521 43.9004Z" />
  <path d="M73.6302 17.1354L69.2083 14.5833V44.9792H69.1875C69.1458 46.0052 69.0521 47.0313 68.9062 48.0469C68.7604 49.0677 68.5573 50.0729 68.3021 51.0677C68.0469 52.0677 67.7396 53.0469 67.3802 54.0104C67.0208 54.974 66.6094 55.9167 66.151 56.8333C65.6875 57.7552 65.1823 58.6458 64.625 59.5156C64.0729 60.3802 63.4688 61.2135 62.8281 62.0156C62.1823 62.8177 61.4948 63.5833 60.7708 64.3125C60.0469 65.0365 59.2813 65.7292 58.4844 66.375C57.6823 67.0208 56.8542 67.625 55.9896 68.1823C55.125 68.7448 54.2344 69.2552 53.3177 69.7188C52.401 70.1823 51.4583 70.5938 50.4948 70.9583C49.5365 71.3229 48.5573 71.6354 47.5625 71.8906C46.5677 72.151 45.5573 72.3594 44.5417 72.5104C43.526 72.6615 42.5 72.7604 41.474 72.8021C40.4479 72.8438 39.4219 72.8333 38.3958 72.7656C37.3646 72.6979 36.349 72.5781 35.3333 72.401C34.3177 72.2292 33.3177 72 32.3281 71.7188C31.3385 71.4375 30.3698 71.099 29.4167 70.7135C28.4635 70.3281 27.5313 69.8958 26.625 69.4115C25.7188 68.9271 24.8385 68.3906 23.9896 67.8125C23.1406 67.2344 22.3229 66.6146 21.5365 65.9479C20.7552 65.2812 20.0052 64.5781 19.2969 63.8333C18.5885 63.0885 17.9219 62.3073 17.2969 61.4896C16.6719 60.6719 16.0885 59.8229 15.5573 58.9479C15.0208 58.0677 14.5312 57.1667 14.0938 56.2344C13.6562 55.3021 13.2656 54.3542 12.9271 53.3802C12.5938 52.4115 12.3073 51.4219 12.0729 50.4219C11.8438 49.4167 11.6667 48.4062 11.5417 47.3854C11.4167 46.3646 11.3438 45.3385 11.3333 44.3125C11.3177 43.2865 11.3542 42.2552 11.4479 41.2344C11.5417 40.2083 11.6927 39.1927 11.8958 38.1823C12.099 37.1771 12.3542 36.1823 12.6615 35.1979C12.9688 34.2188 13.3333 33.2552 13.7396 32.3125C14.151 31.3698 14.6146 30.4531 15.125 29.5625C15.6302 28.6667 16.1875 27.8021 16.7865 26.9688C17.3906 26.1354 18.0365 25.3333 18.7188 24.5677C19.4062 23.8021 20.1302 23.0729 20.8958 22.3854C21.6615 21.6979 22.4583 21.0521 23.2917 20.4479C24.125 19.8438 24.9896 19.2865 25.8802 18.776C26.7708 18.2656 27.6927 17.8021 28.6302 17.3906C29.5729 16.974 30.5365 16.6146 31.5156 16.3021C32.4948 15.9896 33.4896 15.7344 34.5 15.526C35.5052 15.3229 36.5208 15.1719 37.5469 15.0781C38.5677 14.9792 39.5938 14.9375 40.625 14.9479C41.651 14.9635 42.6771 15.0312 43.6979 15.151C44.7188 15.2708 45.7344 15.4479 46.7344 15.6771C47.7344 15.9115 48.724 16.1927 49.6979 16.526C50.6667 16.8594 51.6198 17.25 52.5521 17.6823V4.96875L47.1302 1.84375C46.0885 1.23958 44.9792 0.78125 43.8125 0.46875C42.6458 0.15625 41.4583 0 40.2552 0C39.0469 0 37.8594 0.15625 36.6927 0.46875C35.526 0.78125 34.4219 1.23958 33.375 1.84375L6.88021 17.1354C5.83333 17.7396 4.88542 18.4688 4.03125 19.3229C3.17708 20.1771 2.44792 21.1302 1.84375 22.1719C1.23958 23.2188 0.78125 24.3229 0.46875 25.4896C0.15625 26.6562 0 27.8438 0 29.0521V59.6458C0 60.8542 0.15625 62.0417 0.46875 63.2083C0.78125 64.3698 1.23958 65.4792 1.84375 66.526C2.44792 67.5677 3.17708 68.5208 4.03125 69.375C4.88542 70.2292 5.83333 70.9583 6.88021 71.5625L33.375 86.8542C34.4219 87.4583 35.526 87.9167 36.6927 88.2292C37.8594 88.5417 39.0469 88.6979 40.2552 88.6979C41.4583 88.6979 42.6458 88.5417 43.8125 88.2292C44.9792 87.9167 46.0885 87.4583 47.1302 86.8542L73.6302 71.5573C74.6719 70.9531 75.625 70.224 76.4792 69.3698C77.3333 68.5156 78.0625 67.5677 78.6615 66.5208C79.2656 65.474 79.724 64.3698 80.0365 63.2031C80.349 62.0365 80.5052 60.849 80.5052 59.6406V29.0521C80.5052 27.8438 80.349 26.6562 80.0365 25.4896C79.724 24.3229 79.2656 23.2188 78.6615 22.1719C78.0625 21.1302 77.3333 20.1771 76.4792 19.3229C75.625 18.4688 74.6719 17.7396 73.6302 17.1354Z" />
</svg>
